<mxfile host="app.diagrams.net" modified="2024-06-03T12:45:50.845Z" agent="Mozilla/5.0 (Windows NT 10.0; Win64; x64) AppleWebKit/537.36 (KHTML, like Gecko) Chrome/125.0.0.0 Safari/537.36" etag="IBjFF8XbONvyBGzmZsgc" version="24.4.13" type="google">
  <diagram name="Page-1" id="ad52d381-51e7-2e0d-a935-2d0ddd2fd229">
    <mxGraphModel grid="1" page="1" gridSize="10" guides="1" tooltips="1" connect="1" arrows="1" fold="1" pageScale="1" pageWidth="1100" pageHeight="850" background="none" math="1" shadow="0">
      <root>
        <mxCell id="0" />
        <mxCell id="1" parent="0" />
        <mxCell id="VniyFCCBy8FmLIeSqYWK-29" value="" style="group" connectable="0" vertex="1" parent="1">
          <mxGeometry x="350" y="220" width="230" height="150" as="geometry" />
        </mxCell>
        <mxCell id="VniyFCCBy8FmLIeSqYWK-55" value="" style="ellipse;shape=cloud;whiteSpace=wrap;html=1;dashed=1;dashPattern=8 8;" vertex="1" parent="VniyFCCBy8FmLIeSqYWK-29">
          <mxGeometry x="-49" y="-16" width="270" height="160" as="geometry" />
        </mxCell>
        <mxCell id="VniyFCCBy8FmLIeSqYWK-1" value="" style="ellipse;whiteSpace=wrap;html=1;" vertex="1" parent="VniyFCCBy8FmLIeSqYWK-29">
          <mxGeometry x="40" y="30" width="40" height="20" as="geometry" />
        </mxCell>
        <mxCell id="VniyFCCBy8FmLIeSqYWK-2" value="&lt;i style=&quot;font-family: symbol; font-size: 14px;&quot;&gt;n&lt;/i&gt;" style="ellipse;whiteSpace=wrap;html=1;" vertex="1" parent="VniyFCCBy8FmLIeSqYWK-29">
          <mxGeometry x="100" y="40" width="40" height="20" as="geometry" />
        </mxCell>
        <mxCell id="VniyFCCBy8FmLIeSqYWK-3" value="" style="ellipse;whiteSpace=wrap;html=1;" vertex="1" parent="VniyFCCBy8FmLIeSqYWK-29">
          <mxGeometry x="60" y="60" width="40" height="20" as="geometry" />
        </mxCell>
        <mxCell id="VniyFCCBy8FmLIeSqYWK-4" value="" style="ellipse;whiteSpace=wrap;html=1;" vertex="1" parent="VniyFCCBy8FmLIeSqYWK-29">
          <mxGeometry x="110" y="80" width="40" height="20" as="geometry" />
        </mxCell>
        <mxCell id="VniyFCCBy8FmLIeSqYWK-5" value="" style="ellipse;whiteSpace=wrap;html=1;" vertex="1" parent="VniyFCCBy8FmLIeSqYWK-29">
          <mxGeometry y="60" width="40" height="20" as="geometry" />
        </mxCell>
        <mxCell id="VniyFCCBy8FmLIeSqYWK-6" value="&lt;i style=&quot;font-family: symbol; font-size: 14px;&quot;&gt;u&lt;/i&gt;" style="ellipse;whiteSpace=wrap;html=1;" vertex="1" parent="VniyFCCBy8FmLIeSqYWK-29">
          <mxGeometry x="10" y="90" width="40" height="20" as="geometry" />
        </mxCell>
        <mxCell id="VniyFCCBy8FmLIeSqYWK-7" value="" style="ellipse;whiteSpace=wrap;html=1;" vertex="1" parent="VniyFCCBy8FmLIeSqYWK-29">
          <mxGeometry x="80" y="10" width="40" height="20" as="geometry" />
        </mxCell>
        <mxCell id="VniyFCCBy8FmLIeSqYWK-8" value="" style="ellipse;whiteSpace=wrap;html=1;" vertex="1" parent="VniyFCCBy8FmLIeSqYWK-29">
          <mxGeometry x="70" y="100" width="40" height="20" as="geometry" />
        </mxCell>
        <mxCell id="VniyFCCBy8FmLIeSqYWK-14" value="" style="endArrow=none;html=1;rounded=0;" edge="1" parent="VniyFCCBy8FmLIeSqYWK-29" source="VniyFCCBy8FmLIeSqYWK-1" target="VniyFCCBy8FmLIeSqYWK-7">
          <mxGeometry width="50" height="50" relative="1" as="geometry">
            <mxPoint x="130" y="100" as="sourcePoint" />
            <mxPoint x="180" y="50" as="targetPoint" />
          </mxGeometry>
        </mxCell>
        <mxCell id="VniyFCCBy8FmLIeSqYWK-15" value="" style="endArrow=none;html=1;rounded=0;" edge="1" parent="VniyFCCBy8FmLIeSqYWK-29" source="VniyFCCBy8FmLIeSqYWK-2" target="VniyFCCBy8FmLIeSqYWK-7">
          <mxGeometry width="50" height="50" relative="1" as="geometry">
            <mxPoint x="130" y="100" as="sourcePoint" />
            <mxPoint x="180" y="50" as="targetPoint" />
          </mxGeometry>
        </mxCell>
        <mxCell id="VniyFCCBy8FmLIeSqYWK-16" value="" style="endArrow=none;html=1;rounded=0;" edge="1" parent="VniyFCCBy8FmLIeSqYWK-29" source="VniyFCCBy8FmLIeSqYWK-3" target="VniyFCCBy8FmLIeSqYWK-7">
          <mxGeometry width="50" height="50" relative="1" as="geometry">
            <mxPoint x="130" y="100" as="sourcePoint" />
            <mxPoint x="180" y="50" as="targetPoint" />
          </mxGeometry>
        </mxCell>
        <mxCell id="VniyFCCBy8FmLIeSqYWK-17" value="" style="endArrow=none;html=1;rounded=0;dashed=1;strokeWidth=2;strokeColor=#FF3399;" edge="1" parent="VniyFCCBy8FmLIeSqYWK-29" source="VniyFCCBy8FmLIeSqYWK-3" target="VniyFCCBy8FmLIeSqYWK-4">
          <mxGeometry width="50" height="50" relative="1" as="geometry">
            <mxPoint x="130" y="100" as="sourcePoint" />
            <mxPoint x="180" y="50" as="targetPoint" />
          </mxGeometry>
        </mxCell>
        <mxCell id="VniyFCCBy8FmLIeSqYWK-18" value="" style="endArrow=none;html=1;rounded=0;dashed=1;dashPattern=1 4;" edge="1" parent="VniyFCCBy8FmLIeSqYWK-29" target="VniyFCCBy8FmLIeSqYWK-2">
          <mxGeometry width="50" height="50" relative="1" as="geometry">
            <mxPoint x="150" y="70" as="sourcePoint" />
            <mxPoint x="180" y="50" as="targetPoint" />
          </mxGeometry>
        </mxCell>
        <mxCell id="VniyFCCBy8FmLIeSqYWK-19" value="" style="endArrow=none;html=1;rounded=0;dashed=1;dashPattern=1 4;" edge="1" parent="VniyFCCBy8FmLIeSqYWK-29" target="VniyFCCBy8FmLIeSqYWK-2">
          <mxGeometry width="50" height="50" relative="1" as="geometry">
            <mxPoint x="160" y="30" as="sourcePoint" />
            <mxPoint x="180" y="50" as="targetPoint" />
          </mxGeometry>
        </mxCell>
        <mxCell id="VniyFCCBy8FmLIeSqYWK-21" value="" style="endArrow=none;html=1;rounded=0;" edge="1" parent="VniyFCCBy8FmLIeSqYWK-29" source="VniyFCCBy8FmLIeSqYWK-1" target="VniyFCCBy8FmLIeSqYWK-5">
          <mxGeometry width="50" height="50" relative="1" as="geometry">
            <mxPoint x="130" y="100" as="sourcePoint" />
            <mxPoint x="180" y="50" as="targetPoint" />
          </mxGeometry>
        </mxCell>
        <mxCell id="VniyFCCBy8FmLIeSqYWK-22" value="" style="endArrow=none;html=1;rounded=0;dashed=1;dashPattern=1 4;" edge="1" parent="VniyFCCBy8FmLIeSqYWK-29" source="VniyFCCBy8FmLIeSqYWK-5">
          <mxGeometry width="50" height="50" relative="1" as="geometry">
            <mxPoint x="130" y="100" as="sourcePoint" />
            <mxPoint y="50" as="targetPoint" />
          </mxGeometry>
        </mxCell>
        <mxCell id="VniyFCCBy8FmLIeSqYWK-23" value="" style="endArrow=none;html=1;rounded=0;dashed=1;strokeWidth=2;strokeColor=#FF3399;" edge="1" parent="VniyFCCBy8FmLIeSqYWK-29" source="VniyFCCBy8FmLIeSqYWK-6" target="VniyFCCBy8FmLIeSqYWK-3">
          <mxGeometry width="50" height="50" relative="1" as="geometry">
            <mxPoint x="130" y="100" as="sourcePoint" />
            <mxPoint x="180" y="50" as="targetPoint" />
          </mxGeometry>
        </mxCell>
        <mxCell id="VniyFCCBy8FmLIeSqYWK-24" value="" style="endArrow=none;html=1;rounded=0;dashed=1;dashPattern=1 4;" edge="1" parent="VniyFCCBy8FmLIeSqYWK-29" target="VniyFCCBy8FmLIeSqYWK-6">
          <mxGeometry width="50" height="50" relative="1" as="geometry">
            <mxPoint y="110" as="sourcePoint" />
            <mxPoint x="180" y="50" as="targetPoint" />
          </mxGeometry>
        </mxCell>
        <mxCell id="VniyFCCBy8FmLIeSqYWK-25" value="" style="endArrow=none;html=1;rounded=0;" edge="1" parent="VniyFCCBy8FmLIeSqYWK-29" source="VniyFCCBy8FmLIeSqYWK-8" target="VniyFCCBy8FmLIeSqYWK-4">
          <mxGeometry width="50" height="50" relative="1" as="geometry">
            <mxPoint x="130" y="100" as="sourcePoint" />
            <mxPoint x="180" y="50" as="targetPoint" />
          </mxGeometry>
        </mxCell>
        <mxCell id="VniyFCCBy8FmLIeSqYWK-26" value="" style="endArrow=none;html=1;rounded=0;dashed=1;dashPattern=1 4;" edge="1" parent="VniyFCCBy8FmLIeSqYWK-29" source="VniyFCCBy8FmLIeSqYWK-8">
          <mxGeometry width="50" height="50" relative="1" as="geometry">
            <mxPoint x="130" y="100" as="sourcePoint" />
            <mxPoint x="60" y="120" as="targetPoint" />
          </mxGeometry>
        </mxCell>
        <mxCell id="VniyFCCBy8FmLIeSqYWK-27" value="" style="endArrow=none;html=1;rounded=0;" edge="1" parent="VniyFCCBy8FmLIeSqYWK-29" source="VniyFCCBy8FmLIeSqYWK-5" target="VniyFCCBy8FmLIeSqYWK-8">
          <mxGeometry width="50" height="50" relative="1" as="geometry">
            <mxPoint x="130" y="100" as="sourcePoint" />
            <mxPoint x="180" y="50" as="targetPoint" />
          </mxGeometry>
        </mxCell>
        <mxCell id="VniyFCCBy8FmLIeSqYWK-28" value="" style="endArrow=none;html=1;rounded=0;dashed=1;dashPattern=1 4;" edge="1" parent="VniyFCCBy8FmLIeSqYWK-29" source="VniyFCCBy8FmLIeSqYWK-4">
          <mxGeometry width="50" height="50" relative="1" as="geometry">
            <mxPoint x="130" y="100" as="sourcePoint" />
            <mxPoint x="160" y="90" as="targetPoint" />
          </mxGeometry>
        </mxCell>
        <mxCell id="EEY_1FckYRpUc7-7Xl-z-3" value="" style="endArrow=none;html=1;rounded=0;exitX=0.5;exitY=0;exitDx=0;exitDy=0;entryX=0.582;entryY=1.077;entryDx=0;entryDy=0;entryPerimeter=0;dashed=1;strokeWidth=2;strokeColor=#FF3399;" edge="1" parent="VniyFCCBy8FmLIeSqYWK-29" source="VniyFCCBy8FmLIeSqYWK-4" target="VniyFCCBy8FmLIeSqYWK-2">
          <mxGeometry width="50" height="50" relative="1" as="geometry">
            <mxPoint x="100" y="70" as="sourcePoint" />
            <mxPoint x="150" y="20" as="targetPoint" />
          </mxGeometry>
        </mxCell>
        <mxCell id="VniyFCCBy8FmLIeSqYWK-85" value="" style="shape=umlActor;verticalLabelPosition=bottom;verticalAlign=top;html=1;outlineConnect=0;" vertex="1" parent="1">
          <mxGeometry x="430" y="53" width="30" height="60" as="geometry" />
        </mxCell>
        <mxCell id="VniyFCCBy8FmLIeSqYWK-93" value="&lt;span style=&quot;text-wrap: nowrap; background-color: rgb(255, 255, 255); font-size: 11px;&quot;&gt;&lt;font style=&quot;font-size: 11px;&quot;&gt;action&lt;/font&gt;&lt;/span&gt;" style="text;html=1;align=center;verticalAlign=middle;whiteSpace=wrap;rounded=0;rotation=0;fontSize=11;" vertex="1" parent="1">
          <mxGeometry x="449" y="68" width="60" height="30" as="geometry" />
        </mxCell>
        <mxCell id="VniyFCCBy8FmLIeSqYWK-95" value="&lt;span style=&quot;text-wrap: nowrap; background-color: rgb(255, 255, 255); font-size: 11px;&quot;&gt;&lt;font style=&quot;font-size: 11px;&quot;&gt;reward&lt;/font&gt;&lt;/span&gt;" style="text;html=1;align=center;verticalAlign=middle;whiteSpace=wrap;rounded=0;rotation=-90;fontSize=11;" vertex="1" parent="1">
          <mxGeometry x="510" y="75" width="60" height="30" as="geometry" />
        </mxCell>
        <mxCell id="VniyFCCBy8FmLIeSqYWK-98" value="&lt;span style=&quot;text-wrap: nowrap; background-color: rgb(255, 255, 255); font-size: 11px;&quot;&gt;&lt;font style=&quot;font-size: 11px;&quot;&gt;state&lt;/font&gt;&lt;/span&gt;" style="text;html=1;align=center;verticalAlign=middle;whiteSpace=wrap;rounded=0;rotation=-90;fontSize=11;" vertex="1" parent="1">
          <mxGeometry x="324" y="190" width="60" height="30" as="geometry" />
        </mxCell>
        <mxCell id="VniyFCCBy8FmLIeSqYWK-99" style="edgeStyle=orthogonalEdgeStyle;rounded=0;orthogonalLoop=1;jettySize=auto;html=1;exitX=0.222;exitY=0.25;exitDx=0;exitDy=0;exitPerimeter=0;" edge="1" parent="1" source="VniyFCCBy8FmLIeSqYWK-55">
          <mxGeometry relative="1" as="geometry">
            <Array as="points">
              <mxPoint x="361" y="69" />
            </Array>
            <mxPoint x="360.93999999999994" y="246.83000000000004" as="sourcePoint" />
            <mxPoint x="430" y="69.00030927835051" as="targetPoint" />
          </mxGeometry>
        </mxCell>
        <mxCell id="EEY_1FckYRpUc7-7Xl-z-1" value="neighborhood&lt;div style=&quot;font-size: 10px;&quot;&gt;encoding&lt;/div&gt;&lt;div style=&quot;font-size: 10px;&quot;&gt;&lt;i style=&quot;font-size: 10px;&quot;&gt;S&lt;/i&gt;&lt;sub style=&quot;font-size: 10px;&quot;&gt;&lt;i style=&quot;font-size: 10px;&quot;&gt;initial&lt;/i&gt;&lt;/sub&gt;&lt;/div&gt;" style="edgeLabel;html=1;align=center;verticalAlign=middle;resizable=0;points=[];fontSize=10;" connectable="0" vertex="1" parent="VniyFCCBy8FmLIeSqYWK-99">
          <mxGeometry x="-0.346" y="2" relative="1" as="geometry">
            <mxPoint x="1" y="-13" as="offset" />
          </mxGeometry>
        </mxCell>
        <mxCell id="VniyFCCBy8FmLIeSqYWK-101" value="RL-agent" style="text;html=1;align=center;verticalAlign=middle;whiteSpace=wrap;rounded=0;fontSize=11;" vertex="1" parent="1">
          <mxGeometry x="380" y="70" width="60" height="30" as="geometry" />
        </mxCell>
        <mxCell id="VniyFCCBy8FmLIeSqYWK-89" value="" style="endArrow=classic;html=1;rounded=0;entryX=0.739;entryY=0.163;entryDx=0;entryDy=0;entryPerimeter=0;" edge="1" parent="1" target="VniyFCCBy8FmLIeSqYWK-55">
          <mxGeometry relative="1" as="geometry">
            <mxPoint x="460" y="90" as="sourcePoint" />
            <mxPoint x="474.84" y="189" as="targetPoint" />
            <Array as="points">
              <mxPoint x="500" y="90" />
            </Array>
          </mxGeometry>
        </mxCell>
        <mxCell id="VniyFCCBy8FmLIeSqYWK-90" value="&lt;p style=&quot;line-height: 120%;&quot;&gt;&lt;br&gt;&lt;/p&gt;" style="edgeLabel;resizable=0;html=1;;align=center;verticalAlign=middle;" connectable="0" vertex="1" parent="VniyFCCBy8FmLIeSqYWK-89">
          <mxGeometry relative="1" as="geometry">
            <mxPoint x="-10" y="-5" as="offset" />
          </mxGeometry>
        </mxCell>
        <mxCell id="EEY_1FckYRpUc7-7Xl-z-4" value="Full path&lt;div&gt;(one-shot)&lt;br&gt;&lt;div style=&quot;font-size: 10px;&quot;&gt;encoding&lt;/div&gt;&lt;div style=&quot;font-size: 10px;&quot;&gt;&lt;i style=&quot;font-size: 10px;&quot;&gt;S&lt;/i&gt;&lt;sub style=&quot;font-size: 10px;&quot;&gt;&lt;i style=&quot;font-size: 10px;&quot;&gt;final&lt;/i&gt;&lt;/sub&gt;&lt;br style=&quot;font-size: 10px;&quot;&gt;&lt;/div&gt;&lt;/div&gt;" style="edgeLabel;html=1;align=center;verticalAlign=middle;resizable=0;points=[];fontSize=10;" connectable="0" vertex="1" parent="VniyFCCBy8FmLIeSqYWK-89">
          <mxGeometry x="-0.2354" relative="1" as="geometry">
            <mxPoint y="11" as="offset" />
          </mxGeometry>
        </mxCell>
        <mxCell id="EEY_1FckYRpUc7-7Xl-z-11" value="" style="group;fillColor=default;fontSize=10;" connectable="0" vertex="1" parent="1">
          <mxGeometry x="458" y="179" width="80" height="31" as="geometry" />
        </mxCell>
        <mxCell id="EEY_1FckYRpUc7-7Xl-z-9" value="" style="group" connectable="0" vertex="1" parent="EEY_1FckYRpUc7-7Xl-z-11">
          <mxGeometry x="23" y="4.133333333333334" width="40" height="20.666666666666668" as="geometry" />
        </mxCell>
        <mxCell id="EEY_1FckYRpUc7-7Xl-z-6" value="" style="endArrow=none;html=1;rounded=0;dashed=1;strokeWidth=2;strokeColor=#FF3399;" edge="1" parent="EEY_1FckYRpUc7-7Xl-z-9">
          <mxGeometry width="50" height="50" relative="1" as="geometry">
            <mxPoint x="20" y="10.333333333333334" as="sourcePoint" />
            <mxPoint x="40" y="20.666666666666668" as="targetPoint" />
          </mxGeometry>
        </mxCell>
        <mxCell id="EEY_1FckYRpUc7-7Xl-z-7" value="" style="endArrow=none;html=1;rounded=0;dashed=1;strokeWidth=2;strokeColor=#FF3399;" edge="1" parent="EEY_1FckYRpUc7-7Xl-z-9">
          <mxGeometry width="50" height="50" relative="1" as="geometry">
            <mxPoint y="20.666666666666668" as="sourcePoint" />
            <mxPoint x="20" y="10.333333333333334" as="targetPoint" />
          </mxGeometry>
        </mxCell>
        <mxCell id="EEY_1FckYRpUc7-7Xl-z-8" value="" style="endArrow=none;html=1;rounded=0;dashed=1;strokeWidth=2;strokeColor=#FF3399;" edge="1" parent="EEY_1FckYRpUc7-7Xl-z-9">
          <mxGeometry width="50" height="50" relative="1" as="geometry">
            <mxPoint x="40" y="20.666666666666668" as="sourcePoint" />
            <mxPoint x="30" as="targetPoint" />
          </mxGeometry>
        </mxCell>
        <mxCell id="EEY_1FckYRpUc7-7Xl-z-10" value="&lt;font style=&quot;font-size: 10px;&quot;&gt;&lt;span style=&quot;text-wrap: nowrap; background-color: rgb(255, 255, 255);&quot;&gt;payment&amp;nbsp;&lt;/span&gt;&lt;span style=&quot;text-wrap: nowrap; background-color: initial;&quot;&gt;path&lt;/span&gt;&lt;/font&gt;&lt;div style=&quot;font-size: 10px;&quot;&gt;&lt;span style=&quot;text-wrap: nowrap;&quot;&gt;&lt;font style=&quot;font-size: 10px;&quot;&gt;&lt;br&gt;&lt;/font&gt;&lt;/span&gt;&lt;div style=&quot;text-wrap: nowrap;&quot;&gt;&lt;font face=&quot;symbol&quot; style=&quot;font-size: 10px;&quot;&gt;&lt;i style=&quot;&quot;&gt;[u, n]&lt;/i&gt;&lt;/font&gt;&lt;/div&gt;&lt;/div&gt;" style="text;html=1;align=center;verticalAlign=middle;whiteSpace=wrap;rounded=0;fontSize=11;" vertex="1" parent="EEY_1FckYRpUc7-7Xl-z-11">
          <mxGeometry width="80" height="31.000000000000004" as="geometry" />
        </mxCell>
        <mxCell id="VniyFCCBy8FmLIeSqYWK-94" value="" style="endArrow=classic;html=1;rounded=0;edgeStyle=orthogonalEdgeStyle;dashed=1;dashPattern=8 8;" edge="1" parent="EEY_1FckYRpUc7-7Xl-z-11">
          <mxGeometry width="50" height="50" relative="1" as="geometry">
            <mxPoint x="76.00000000000011" y="4.13030927835058" as="sourcePoint" />
            <mxPoint x="-2" y="-109.86969072164948" as="targetPoint" />
            <Array as="points">
              <mxPoint x="88" y="4" />
              <mxPoint x="88" y="-110" />
            </Array>
          </mxGeometry>
        </mxCell>
      </root>
    </mxGraphModel>
  </diagram>
</mxfile>
